<svg width="18" height="27" viewBox="0 0 18 27" fill="none" xmlns="http://www.w3.org/2000/svg">
<path d="M17.8635 26.1377H1.09399V23.7998L9.95337 13.9561C11.2659 12.4678 12.1682 11.2607 12.6604 10.335C13.1643 9.39746 13.4163 8.43066 13.4163 7.43457C13.4163 6.09863 13.012 5.00293 12.2034 4.14746C11.3948 3.29199 10.3167 2.86426 8.96899 2.86426C7.35181 2.86426 6.09204 3.32715 5.1897 4.25293C4.29907 5.16699 3.85376 6.44434 3.85376 8.08496H0.601807C0.601807 5.72949 1.35767 3.8252 2.86938 2.37207C4.39282 0.918945 6.42603 0.192383 8.96899 0.192383C11.3479 0.192383 13.2288 0.819336 14.6116 2.07324C15.9944 3.31543 16.6858 4.97363 16.6858 7.04785C16.6858 9.56738 15.0803 12.5674 11.8694 16.0479L5.01392 23.4834H17.8635V26.1377Z" fill="#F9F8F8"/>
</svg>
